<?xml version="1.0" standalone="no"?><!DOCTYPE svg PUBLIC "-//W3C//DTD SVG 1.1//EN" "http://www.w3.org/Graphics/SVG/1.1/DTD/svg11.dtd"><svg t="1766160245999" class="icon" viewBox="0 0 1024 1024" version="1.1" xmlns="http://www.w3.org/2000/svg" p-id="7311" xmlns:xlink="http://www.w3.org/1999/xlink" width="200" height="200"><path d="M874.666667 271.17037h-725.333334c-11.757037 0-21.333333-9.576296-21.333333-21.333333s9.576296-21.333333 21.333333-21.333333h725.333334c11.757037 0 21.333333 9.576296 21.333333 21.333333S886.423704 271.17037 874.666667 271.17037z" p-id="7312"></path><path d="M640.948148 271.17037H383.051852c-24.272593 0-44.088889-19.816296-44.088889-44.088889v-54.992592c0-24.272593 19.816296-44.088889 44.088889-44.088889h257.896296c24.272593 0 44.088889 19.816296 44.088889 44.088889v54.992592c0 24.272593-19.816296 44.088889-44.088889 44.088889zM383.051852 170.666667c-0.758519 0-1.422222 0.663704-1.422222 1.422222v54.992592c0 0.758519 0.663704 1.422222 1.422222 1.422223h257.896296c0.758519 0 1.422222-0.663704 1.422222-1.422223v-54.992592c0-0.758519-0.663704-1.422222-1.422222-1.422222H383.051852z" p-id="7313"></path><path d="M721.635556 896.474074H302.364444c-34.702222 0-63.051852-27.211852-64.379259-61.914074l-23.134815-583.86963c-0.18963-5.878519 1.991111-11.662222 6.068149-15.928889 4.077037-4.266667 9.765926-6.637037 15.739259-6.637037h550.779259c5.878519 0 11.567407 2.37037 15.739259 6.637037 4.077037 4.266667 6.257778 10.05037 6.068148 15.928889L786.014815 834.56c-1.327407 34.702222-29.677037 61.914074-64.379259 61.914074z m-462.411852-624.82963l22.281481 561.208889c0.474074 11.282963 9.576296 20.100741 20.859259 20.100741h419.271112c11.282963 0 20.48-8.817778 20.859259-20.100741l22.281481-561.208889H259.223704z" p-id="7314"></path><path d="M417.185185 777.007407c-12.8 0-23.22963-10.42963-23.229629-23.229629V370.725926c0-12.8 10.42963-23.22963 23.229629-23.22963s23.22963 10.42963 23.22963 23.22963v383.051852c0 12.8-10.42963 23.22963-23.22963 23.229629zM606.814815 777.007407c-12.8 0-23.22963-10.42963-23.22963-23.229629V370.725926c0-12.8 10.42963-23.22963 23.22963-23.22963s23.22963 10.42963 23.229629 23.22963v383.051852c0 12.8-10.42963 23.22963-23.229629 23.229629z" p-id="7315"></path></svg>