<svg viewBox="0 0 24 24" fill="none" xmlns="http://www.w3.org/2000/svg" id="Key--Streamline-Solar-Ar" height="24" width="24">
  <desc>
    Key Streamline Icon: https://streamlinehq.com
  </desc>
  <path d="M15.6807 14.5869c3.4901 0 6.3193 -2.8177 6.3193 -6.29346C22 4.81767 19.1708 2 15.6807 2c-3.49 0 -6.3192 2.81767 -6.3192 6.29344 0 1.60994 0.7348 2.78086 0.7348 2.78086l-7.64189 7.6106c-0.34291 0.3415 -0.82298 1.2294 0 2.049l0.88175 0.8782c0.34289 0.2927 1.20503 0.7025 1.91044 0l1.02871 -1.0245c1.02872 1.0245 2.20439 0.4391 2.64527 -0.1464 0.7348 -1.0245 -0.14696 -2.049 -0.14696 -2.049l0.29392 -0.2927c1.41076 1.405 2.64526 0.5854 3.08616 0 0.7348 -1.0245 0 -2.049 0 -2.049 -0.2939 -0.5855 -0.8817 -0.5855 -0.147 -1.3172l0.8818 -0.8782c0.7054 0.5854 2.1554 0.7318 2.7922 0.7318Z" stroke="#000000" stroke-linejoin="round" stroke-width="1.5"></path>
  <path d="M17.8851 8.29353c0 1.21248 -0.9869 2.19537 -2.2044 2.19537 -1.2174 0 -2.2044 -0.98289 -2.2044 -2.19537s0.987 -2.19539 2.2044 -2.19539c1.2175 0 2.2044 0.98291 2.2044 2.19539Z" stroke="#000000" stroke-width="1.5"></path>
</svg>