<?xml version="1.0" standalone="no"?><!DOCTYPE svg PUBLIC "-//W3C//DTD SVG 1.1//EN" "http://www.w3.org/Graphics/SVG/1.1/DTD/svg11.dtd"><svg t="1767061344956" class="icon" viewBox="0 0 1024 1024" version="1.1" xmlns="http://www.w3.org/2000/svg" p-id="8072" xmlns:xlink="http://www.w3.org/1999/xlink" width="200" height="200"><path d="M262 202c-33.138 0-60 26.862-60 60v500c0 33.138 26.862 60 60 60h500c33.138 0 60-26.862 60-60V262c0-33.138-26.862-60-60-60H262z m0-90h500c82.842 0 150 67.158 150 150v500c0 82.842-67.158 150-150 150H262c-82.842 0-150-67.158-150-150V262c0-82.842 67.158-150 150-150z" fill="#444444" p-id="8073"></path><path d="M512 644h90v90h-90v-86h-90v-90h90v86z m0-176h90v90h-90v-86h-90v-90h90v86z m-90-266h90v90h-90v-90z m0 532h90v90h-90v-90z m90-442h90v90h-90v-90z" fill="#444444" p-id="8074"></path></svg>